<svg width="53" height="36" viewBox="0 0 53 36" fill="none" xmlns="http://www.w3.org/2000/svg">
<path d="M49.8614 35.3439C49.2209 35.6852 48.5173 35.8646 47.8036 35.8684C45.5305 35.8684 43.5157 34.0243 41.823 32.4714C40.8879 31.6146 39.9529 30.7392 38.9059 30.0449C37.9243 29.3972 36.8928 29.0873 35.7477 29.4233C35.343 29.5428 34.99 29.7499 34.5612 29.7761C33.6237 29.822 32.7077 29.4629 32.0143 28.7775C30.1804 26.9726 30.604 23.6912 32.8547 22.5713C33.7547 22.1189 34.7157 21.8253 35.7012 21.7015C39.9942 21.1714 43.3487 23.9824 45.8611 26.2726C45.3458 23.0245 44.4259 19.8674 43.1266 16.8877C42.2036 14.7748 41.0601 12.1448 39.7169 10.101C39.1779 9.2797 38.0759 7.3777 36.9187 7.73235C36.0163 8.01046 35.4308 9.31517 34.897 10.0618C33.1956 12.4528 30.8571 15.7304 26.7484 15.8816H26.2714C22.1643 15.7342 19.8344 12.4565 18.1124 10.0655C17.5338 9.2517 16.5075 7.15745 15.3572 7.70435C14.4565 8.13178 13.8452 9.27223 13.2993 10.1047C11.9613 12.1579 10.8127 14.771 9.88974 16.8914C8.58811 19.8701 7.66808 23.0276 7.15516 26.2763C9.66932 23.9861 13.0238 21.1751 17.3151 21.7052C18.2979 21.8295 19.2563 22.1218 20.1547 22.5713C22.4089 23.6912 22.8325 26.9781 20.9951 28.785C20.3431 29.4281 19.4934 29.7848 18.6118 29.7854C18.1879 29.777 17.7699 29.6767 17.3823 29.4905C15.0851 28.4434 12.7793 31.0173 11.1933 32.477C9.50056 34.0299 7.48407 35.874 5.21272 35.874C4.49607 35.8718 3.78933 35.6925 3.14629 35.3496C-0.297763 33.5427 -0.0532355 28.5871 0.0466419 26.7224L0.0741897 26.4089C0.637155 21.9909 1.81886 17.6919 3.57851 13.6605C5.92391 8.29604 9.47473 0.184091 15.674 0.00303704C19.6536 -0.112688 21.9491 3.10335 23.6246 5.45331C24.8455 7.16865 25.7048 8.29604 26.4832 8.3371H26.497C27.277 8.31097 28.1398 7.17799 29.371 5.45331C31.0465 3.10335 33.3317 -0.112688 37.3164 0.00303704C43.5157 0.18969 47.0666 8.29604 49.4137 13.6605C51.1713 17.6931 52.354 21.9915 52.9214 26.4089L52.949 26.7224C53.0558 28.5815 53.3089 33.5371 49.8614 35.3439Z" fill="url(#paint0_linear_55_229)"/>
<defs>
<linearGradient id="paint0_linear_55_229" x1="53" y1="17.937" x2="0" y2="17.937" gradientUnits="userSpaceOnUse">
<stop stop-color="#1CF3CA"/>
<stop offset="1" stop-color="#DD00B8"/>
</linearGradient>
</defs>
</svg>
